<?xml version="1.0" standalone="no"?>
<!DOCTYPE svg PUBLIC "-//W3C//DTD SVG 1.1//EN" "http://www.w3.org/Graphics/SVG/1.1/DTD/svg11.dtd" >
<!--
2013-9-30: Created.
-->
<svg>
<metadata>
Created by iconfont
</metadata>
<defs>

<font id="iconfont" horiz-adv-x="1024" >
  <font-face
    font-family="iconfont"
    font-weight="500"
    font-stretch="normal"
    units-per-em="1024"
    ascent="896"
    descent="-128"
  />
    <missing-glyph />
    
    <glyph glyph-name="x" unicode="x" horiz-adv-x="1001"
d="M281 543q-27 -1 -53 -1h-83q-18 0 -36.5 -6t-32.5 -18.5t-23 -32t-9 -45.5v-76h912v41q0 16 -0.5 30t-0.5 18q0 13 -5 29t-17 29.5t-31.5 22.5t-49.5 9h-133v-97h-438v97zM955 310v-52q0 -23 0.5 -52t0.5 -58t-10.5 -47.5t-26 -30t-33 -16t-31.5 -4.5q-14 -1 -29.5 -0.5
t-29.5 0.5h-32l-45 128h-439l-44 -128h-29h-34q-20 0 -45 1q-25 0 -41 9.5t-25.5 23t-13.5 29.5t-4 30v167h911zM163 247q-12 0 -21 -8.5t-9 -21.5t9 -21.5t21 -8.5q13 0 22 8.5t9 21.5t-9 21.5t-22 8.5zM316 123q-8 -26 -14 -48q-5 -19 -10.5 -37t-7.5 -25t-3 -15t1 -14.5
t9.5 -10.5t21.5 -4h37h67h81h80h64h36q23 0 34 12t2 38q-5 13 -9.5 30.5t-9.5 34.5q-5 19 -11 39h-368zM336 498v228q0 11 2.5 23t10 21.5t20.5 15.5t34 6h188q31 0 51.5 -14.5t20.5 -52.5v-227h-327z" />
    

    
    <glyph glyph-name="ditu" unicode="&#59035;" d="M761.044318 157.028378a33.758242 33.758242 0 0 1-12.365656-66.527231c96.575776-18.795798 154.199734-49.462625 154.199734-64.796039 0-3.462384-5.069919-8.532303-18.672141-18.795798a315.695206 315.695206 0 0 0-81.366018-34.129211c-75.677817-22.258181-179.54933-34.252868-289.232702-34.252868s-215.16242 12.365656-289.727327 34.129211a315.695206 315.695206 0 0 0-81.366019 34.129212c-15.209757 10.263495-20.279676 15.333414-20.279676 18.795798 0 13.602222 52.554039 42.661514 140.597512 61.828281a32.645333 32.645333 0 0 1 25.349596 40.930323A30.172201 30.172201 0 0 1 249.35346 154.060621C128.664654 127.969086 54.470716 87.038763 54.470716 25.581452c0-95.586523 203.29139-153.581452 457.529284-153.581452s457.529284 57.994928 457.529284 153.581452c0 63.188504-79.634827 105.850018-208.361309 131.446926zM255.412631 419.922232l229.135612-368.743872a30.543171 30.543171 0 0 1 54.779857 0L768.463712 419.922232a305.679024 305.679024 0 1 1-511.938172 0zM512 728.569013a140.350199 140.350199 0 1 0-139.360947-140.350199A139.855573 139.855573 0 0 0 512 728.569013z"  horiz-adv-x="1024" />

    
    <glyph glyph-name="kaishixuexi" unicode="&#58906;" d="M878.4 119.3H141.2c-13.8 0-25 11.2-25 25V781.6c0 13.8 11.2 25 25 25h737.2c13.8 0 25-11.2 25-25v-637.2c0-13.9-11.2-25.1-25-25.1z m-712.2 50h687.2V756.6H166.2v-587.3zM928.3 769.1H91.2c-13.8 0-25 11.2-25 25s11.2 25 25 25h837.2c13.8 0 25-11.2 25-25s-11.3-25-25.1-25zM578.5 619.1H266.1c-13.8 0-25 11.2-25 25s11.2 25 25 25h312.4c13.8 0 25-11.2 25-25s-11.2-25-25-25zM578.5 444.2H266.1c-13.8 0-25 11.2-25 25s11.2 25 25 25h312.4c13.8 0 25-11.2 25-25s-11.2-25-25-25zM453.5 269.3H266.1c-13.8 0-25 11.2-25 25s11.2 25 25 25h187.4c13.8 0 25-11.2 25-25s-11.2-25-25-25zM256.7-46.2c-6.4 0-12.8 2.4-17.7 7.3-9.8 9.8-9.8 25.6 0 35.3L404.6 162c9.8 9.8 25.6 9.8 35.3 0 9.8-9.8 9.8-25.6 0-35.3L274.4-38.9c-4.9-4.9-11.3-7.3-17.7-7.3zM797.1-46.2c-6.4 0-12.8 2.4-17.7 7.3L613.9 126.7c-9.8 9.8-9.8 25.6 0 35.3 9.8 9.8 25.6 9.8 35.3 0l165.6-165.6c9.8-9.8 9.8-25.6 0-35.3-4.9-4.9-11.3-7.3-17.7-7.3z"  horiz-adv-x="1024" />

    
    <glyph glyph-name="kaishizuoti" unicode="&#58907;" d="M748.5-60.6H274c-87 0-157.8 70.8-157.8 157.8V644.4c0 87 70.8 157.8 157.8 157.8h380.3c13.4 0 24.3-10.9 24.3-24.3s-10.9-24.3-24.3-24.3H274c-60.2 0-109.1-49-109.1-109.1v-547.2c0-60.2 49-109.1 109.1-109.1h474.5c60.2 0 109.1 49 109.1 109.1V517.6c0 13.4 10.9 24.3 24.3 24.3s24.3-10.9 24.3-24.3v-420.4c0.1-87-70.7-157.8-157.7-157.8zM451.8 473.2H278.3c-13.4 0-24.3 10.9-24.3 24.3s10.9 24.3 24.3 24.3h173.5c13.4 0 24.3-10.9 24.3-24.3 0.1-13.4-10.8-24.3-24.3-24.3zM732.1 219.7H278.3c-13.4 0-24.3 10.9-24.3 24.3s10.9 24.3 24.3 24.3H732c13.4 0 24.3-10.9 24.3-24.3s-10.8-24.3-24.2-24.3zM898.9 773.5c-6.2 0-12.5 2.4-17.2 7.1-9.5 9.5-9.5 24.9 0 34.4l7.9 7.9c9.5 9.5 24.9 9.5 34.4 0s9.5-24.9 0-34.4l-7.9-7.9c-4.8-4.7-11-7.1-17.2-7.1zM624.1 498.7c-6.2 0-12.5 2.4-17.2 7.1-9.5 9.5-9.5 24.9 0 34.4l228 228.1c9.5 9.5 24.9 9.5 34.4 0s9.5-24.9 0-34.4l-228-228c-4.7-4.8-10.9-7.2-17.2-7.2z"  horiz-adv-x="1024" />

    
    <glyph glyph-name="lianxijilu" unicode="&#58908;" d="M924.4 671.7H560c-13.4 0-24.3 10.9-24.3 24.3s10.9 24.3 24.3 24.3h364.4c13.4 0 24.3-10.9 24.3-24.3s-10.9-24.3-24.3-24.3zM924.4 538.1H560c-13.4 0-24.3 10.9-24.3 24.3s10.9 24.3 24.3 24.3h364.4c13.4 0 24.3-10.9 24.3-24.3s-10.9-24.3-24.3-24.3zM924.4 404.5H560c-13.4 0-24.3 10.9-24.3 24.3s10.9 24.3 24.3 24.3h364.4c13.4 0 24.3-10.9 24.3-24.3s-10.9-24.3-24.3-24.3zM673.2-31.5c-62.7 0-134.4 34.1-213.9 101.7C239.2 257.1 30 534.3 75.7 656 115.4 762 241.9 813.6 247.3 815.8c10.5 4.2 22.4 0.6 28.9-8.6l122.4-173.4c9.9-14 13.4-31.7 9.6-48.5s-14.7-31.2-29.7-39.5l-52-28.9c79-129.1 205-288 263.3-271.3 34.2 9.8 48.2 18.6 53.5 22.9 20.1 16.5 47.9 19.1 70.8 6.7C822.8 216.1 868.4 162.6 849.8 116c-32-80.1-78.4-128.2-137.8-142.9-12.5-3.1-25.4-4.6-38.8-4.6z m-425 794.1c-32.7-16.6-102.6-58.6-127-123.7C91.9 561 243.8 317.1 490.7 107.2c83.9-71.3 154.4-100.5 209.6-86.9 43.3 10.7 78.4 49 104.3 113.8 4.7 11.6-22.1 48.6-113.8 98.4-5.4 2.9-12 2.3-16.8-1.6-14.9-12.2-38.1-22.7-71-32.1C483 164.6 306 455 271.7 513.6c-3.3 5.6-4.2 12.4-2.5 18.7 1.7 6.3 5.9 11.6 11.6 14.8l73.9 41.1c4.1 2.3 5.5 5.9 5.9 7.9 0.4 2 0.8 5.8-1.9 9.7L248.2 762.6z"  horiz-adv-x="1024" />

    
    <glyph glyph-name="kechengguanli" unicode="&#58909;" d="M780.6-59.6H240.3c-87.2 0-158.1 70.9-158.1 158.1V678.3c0 86.5 70.9 156.8 158.1 156.8h59.3c14.6 0 26.4-11.8 26.4-26.4s-11.8-26.4-26.4-26.4h-59.3c-58.1 0-105.4-46.7-105.4-104.1v-579.8c0-58.1 47.3-105.4 105.4-105.4h540.3c58.1 0 105.4 47.3 105.4 105.4V678.3c0 57.4-47.3 104.1-105.4 104.1h-46.1c-14.6 0-26.4 11.8-26.4 26.4s11.8 26.4 26.4 26.4h46.1c87.2 0 158.1-70.3 158.1-156.8v-579.8c0-87.3-70.9-158.2-158.1-158.2zM723.4 171.6H297.6c-14.6 0-26.4 11.8-26.4 26.4 0 14.6 11.8 26.4 26.4 26.4h425.8c14.6 0 26.4-11.8 26.4-26.4-0.1-14.6-11.9-26.4-26.4-26.4zM578.4 369.2H297.6c-14.6 0-26.4 11.8-26.4 26.4 0 14.6 11.8 26.4 26.4 26.4h280.8c14.6 0 26.4-11.8 26.4-26.4 0-14.6-11.8-26.4-26.4-26.4zM723.4 566.9H297.6c-14.6 0-26.4 11.8-26.4 26.4 0 14.6 11.8 26.4 26.4 26.4h425.8c14.6 0 26.4-11.8 26.4-26.4-0.1-14.6-11.9-26.4-26.4-26.4zM591.6 782.4h-149c-14.6 0-26.4 11.8-26.4 26.4s11.8 26.4 26.4 26.4h149c14.6 0 26.4-11.8 26.4-26.4s-11.9-26.4-26.4-26.4z"  horiz-adv-x="1024" />

    
    <glyph glyph-name="lijijiaofei" unicode="&#58910;" d="M815.8 1.3H207c-77.5 0-140.5 63-140.5 140.5V458c0 77.5 63 140.5 140.5 140.5h608.9c77.5 0 140.5-63 140.5-140.5v-316.1c-0.1-77.5-63.1-140.6-140.6-140.6zM207 551.6c-51.6 0-93.7-42-93.7-93.7v-316.1c0-51.6 42-93.7 93.7-93.7h608.9c51.6 0 93.7 42 93.7 93.7V458c0 51.6-42 93.7-93.7 93.7H207zM511.4 370.2c-6 0-12 2.3-16.6 6.9l-70.3 70.3c-9.1 9.1-9.1 24 0 33.1 9.1 9.1 24 9.1 33.1 0l53.7-53.7 53.7 53.7c9.1 9.1 24 9.1 33.1 0 9.1-9.1 9.1-24 0-33.1L528 377c-4.6-4.6-10.6-6.8-16.6-6.8zM616.8 346.7H406c-12.9 0-23.4 10.5-23.4 23.4 0 12.9 10.5 23.4 23.4 23.4h210.8c12.9 0 23.4-10.5 23.4-23.4 0-12.9-10.5-23.4-23.4-23.4zM616.8 253.1H406c-12.9 0-23.4 10.5-23.4 23.4s10.5 23.4 23.4 23.4h210.8c12.9 0 23.4-10.5 23.4-23.4s-10.5-23.4-23.4-23.4zM511.4 147.7c-12.9 0-23.4 10.5-23.4 23.4V393.6c0 12.9 10.5 23.4 23.4 23.4s23.4-10.5 23.4-23.4v-222.5c0-12.9-10.5-23.4-23.4-23.4zM792.4 642.4H218.7c-12.9 0-23.4 10.5-23.4 23.4 0 12.9 10.5 23.4 23.4 23.4h573.7c12.9 0 23.4-10.5 23.4-23.4 0-12.9-10.5-23.4-23.4-23.4zM769 736.1H242.1c-12.9 0-23.4 10.5-23.4 23.4s10.5 23.4 23.4 23.4H769c12.9 0 23.4-10.5 23.4-23.4s-10.5-23.4-23.4-23.4z"  horiz-adv-x="1024" />

    
    <glyph glyph-name="chengjichaxun" unicode="&#58911;" d="M474.2-59.7H263.3c-90.3 0-163.8 73.5-163.8 163.8V668c0 90.4 73.5 163.8 163.8 163.8h489.1c90.3 0 163.8-73.5 163.8-163.8v-239.6c0-14.5-11.7-26.2-26.2-26.2s-26.2 11.7-26.2 26.3V668c0 61.3-49.9 111.4-111.4 111.4H263.3C202 779.4 152 729.5 152 668v-564c0-61.3 49.9-111.4 111.4-111.4h210.9c14.5 0 26.2-11.7 26.2-26.2s-11.8-26.1-26.3-26.1zM446.6 229.1H267.8c-14.5 0-26.2 11.7-26.2 26.2s11.7 26.2 26.2 26.2h178.8c14.5 0 26.2-11.7 26.2-26.2 0-14.4-11.7-26.2-26.2-26.2zM735.5 490.5H267.8c-14.5 0-26.2 11.7-26.2 26.2s11.7 26.2 26.2 26.2h467.7c14.5 0 26.2-11.7 26.2-26.2s-11.8-26.2-26.2-26.2zM711.1 47.5c-94 0-170.4 76.4-170.4 170.4s76.4 170.4 170.4 170.4 170.4-76.4 170.4-170.4S805 47.5 711.1 47.5z m0 288.4c-65.1 0-118-52.9-118-118s52.9-118 118-118 118 53 118 118-53 118-118 118zM905.6-35.5c-6.7 0-13.5 2.5-18.6 7.6L786.5 72.8c-10.2 10.2-10.2 26.8 0 37.1 10.2 10.2 26.8 10.2 37.1 0l100.6-100.6c10.2-10.2 10.2-26.8 0-37.1-5.2-5.2-11.9-7.7-18.6-7.7z"  horiz-adv-x="1024" />

    
    <glyph glyph-name="peiyangjihua" unicode="&#58912;" d="M510.2 304.1c-3.3 0-6.6 0.6-9.7 1.9l-416 168.2c-9.8 4-16.2 13.5-16.2 24s6.4 20.1 16.2 24l415.9 168.3c6.2 2.5 13.2 2.5 19.4 0l415.9-168.3c9.8-4 16.2-13.5 16.2-24s-6.4-20.1-16.2-24L519.9 306c-3.1-1.3-6.4-1.9-9.7-1.9zM163.4 498.3L510.2 358 857 498.3 510.2 638.6 163.4 498.3zM510.2 77.9c-3.3 0-6.6 0.6-9.7 1.9l-337 136.3c-9 3.7-15.2 12.1-16.1 21.8-0.9 9.7 3.8 19.1 12 24.2l99.9 62.7c12.1 7.6 28.1 3.9 35.7-8.2 7.6-12.1 4-28.1-8.2-35.7l-56.9-35.7 280.3-113.4 280.3 113.4-56.9 35.7c-12.1 7.6-15.8 23.6-8.2 35.7 7.6 12.1 23.6 15.8 35.7 8.2l99.9-62.7c8.2-5.2 12.9-14.5 12-24.2-0.9-9.7-7.1-18.1-16.1-21.8l-337-136.3c-3.1-1.3-6.4-1.9-9.7-1.9z"  horiz-adv-x="1024" />

    
    <glyph glyph-name="tingkejilu" unicode="&#58913;" d="M256.5 685.4c-7.1 0-14.2 3.2-18.9 9.3-8 10.4-6 25.3 4.5 33.3 77 58.8 169.1 89.9 266.3 89.9 13.1 0 23.7-10.6 23.7-23.7s-10.6-23.7-23.7-23.7c-86.7 0-168.8-27.7-237.5-80.2-4.3-3.3-9.4-4.9-14.4-4.9zM508.4-60.6c-217 0-403.9 161.7-434.8 376.1-1.9 13 7.1 25 20.1 26.9 13 1.9 25-7.1 26.9-20.1 27.5-191.2 194.2-335.4 387.8-335.4 216 0 391.8 175.8 391.8 391.8S724.4 770.5 508.4 770.5c-13.1 0-23.7 10.6-23.7 23.7S495.3 818 508.4 818c242.2 0 439.3-197.1 439.3-439.3S750.6-60.6 508.4-60.6zM254.5 689.7c-1.9 0-3.8 0.2-5.8 0.7-12.7 3.2-20.4 16.1-17.3 28.8l23.1 92.3c3.2 12.7 16.1 20.4 28.8 17.3 12.7-3.2 20.4-16.1 17.3-28.8l-23.1-92.3c-2.7-10.8-12.4-18-23-18zM346.8 655.1c-1.9 0-3.8 0.2-5.8 0.7l-92.3 23.1c-12.7 3.2-20.4 16.1-17.3 28.8 3.2 12.7 16.1 20.5 28.8 17.3l92.3-23.1c12.7-3.2 20.4-16.1 17.3-28.8-2.6-10.8-12.3-18-23-18zM484.5 307.3c-13.1 0-23.7 10.6-23.7 23.7V485.3c0 13.1 10.6 23.7 23.7 23.7s23.7-10.6 23.7-23.7V331c0.1-13-10.6-23.7-23.7-23.7zM644.7 301.4H490.5c-13.1 0-23.7 10.6-23.7 23.7s10.6 23.7 23.7 23.7h154.3c13.1 0 23.7-10.6 23.7-23.7s-10.7-23.7-23.8-23.7z"  horiz-adv-x="1024" />

    
    <glyph glyph-name="lunwendabian" unicode="&#58914;" d="M435.5-46.2H229.1c-88.4 0-160.3 71.9-160.3 160.3V666.2c0 88.4 71.9 160.3 160.3 160.3h478.8c88.4 0 160.3-71.9 160.3-160.3v-234.5c0-14.2-11.5-25.7-25.7-25.7s-25.7 11.5-25.7 25.7V666.2c0 60.1-48.9 109-109 109H229.1c-60.1 0-109-48.9-109-109v-552.1c0-60.1 48.9-109 109-109h206.4c14.2 0 25.7-11.5 25.7-25.7s-11.5-25.6-25.7-25.6zM408.5 236.6h-175c-14.2 0-25.7 11.5-25.7 25.7s11.5 25.7 25.7 25.7h175.1c14.2 0 25.7-11.5 25.7-25.7-0.1-14.2-11.6-25.7-25.8-25.7zM691.3 492.5H233.5c-14.2 0-25.7 11.5-25.7 25.7s11.5 25.7 25.7 25.7h457.8c14.2 0 25.7-11.5 25.7-25.7 0-14.3-11.5-25.7-25.7-25.7zM728.4 174.3c-60.1 0-109.1 48.9-109.1 109.1s48.9 109.1 109.1 109.1c60.1 0 109.1-48.9 109.1-109.1s-49-109.1-109.1-109.1z m0 166.8c-31.8 0-57.7-25.9-57.7-57.7 0-31.8 25.9-57.7 57.7-57.7 31.8 0 57.7 25.9 57.7 57.7 0 31.8-25.9 57.7-57.7 57.7zM645 84.5c-3 0-6 0.5-9 1.6-13.3 5-20 19.8-15 33l38.5 102.7c5 13.3 19.7 20 33 15s20-19.8 15-33L669 101.1c-3.9-10.3-13.6-16.6-24-16.6zM811.8 84.5c-10.4 0-20.2 6.4-24 16.7l-38.5 102.7c-5 13.3 1.8 28.1 15 33 13.3 4.9 28.1-1.8 33-15l38.5-102.7c5-13.3-1.8-28.1-15-33-3-1.2-6-1.7-9-1.7zM912.8-56.7H543.9c-25.7 0-46.5 20.9-46.5 46.5v86.6c0 25.7 20.9 46.5 46.5 46.5h368.9c25.7 0 46.5-20.9 46.5-46.5v-86.6c0.1-25.6-20.8-46.5-46.5-46.5z m-364.1 51.3H908v77H548.7v-77z m364.1 77h0.1-0.1z"  horiz-adv-x="1024" />

    
    <glyph glyph-name="wodebaokao" unicode="&#58915;" d="M927.9 353.2l-34.2-34.8-268.5-273.5L505.7 13l-49.4-13.2-40.2-10.8 10.5 40.9 6.4 24.9L470.9 202l302.7 308.3c14.3 14.6 32.7 23.7 51.7 25.7 20.5 2.1 40.1-4.6 53.6-18.4l56-57c13.5-13.8 20.1-33.7 18.1-54.6-1.8-19.5-10.8-38.2-25.1-52.8z m-429-237.4l17.5-0.3c13.1-0.2 23.7-11 23.9-24.4l0.2-17.8 44.8 12-10 66-64.8 10.1-11.6-45.6zM756.6 423L543.7 206.2l74.2-11.6 11.4-75.6 212.8 216.8-85.5 87.2z m144.1 2.6l-56 57c-7 7.1-23.8 5.9-36.8-7.2l-17-17.4 85.6-87.2 17.1 17.4c12.9 13.1 14.1 30.2 7.1 37.4z m-24.1 144.9c-13.9 0-25.2 11.1-25.2 24.7v60.7c0 68.1-56.5 123.5-126 123.5H589.1V489c0-13.3-11.6-24.1-25.9-24.1-14.3 0-25.9 10.8-25.9 24.1V779.5H297c-69.5 0-126-55.4-126-123.5v-72.1h103.3c13.4 0 24.3-11.1 24.3-24.7 0-13.7-10.9-24.7-24.3-24.7H170.9V411h103.3c13.4 0 24.3-11.1 24.3-24.7s-10.9-24.7-24.3-24.7H170.9v-123.5h103.3c13.4 0 24.3-11.1 24.3-24.7s-10.9-24.7-24.3-24.7H170.9v-72.1c0-68.1 56.5-123.6 126-123.6h79.8c13.9 0 25.2-11.1 25.2-24.7s-11.3-24.7-25.2-24.7H297c-97.3 0-176.4 77.6-176.4 173v72.1H92.3c-13.4 0-24.3 11.1-24.3 24.7s10.9 24.7 24.3 24.7h28.3V361.5H92.3c-13.4 0-24.3 11.1-24.3 24.7s10.9 24.7 24.3 24.7h28.3V534.4H92.3c-13.4 0-24.3 11.1-24.3 24.7s10.9 24.7 24.3 24.7h28.3v72.1c0 95.4 79.1 173 176.4 173h428.5c97.3 0 176.4-77.6 176.4-173v-60.7c-0.1-13.7-11.3-24.7-25.3-24.7z"  horiz-adv-x="1024" />

    
    <glyph glyph-name="tousuyutiwen" unicode="&#58916;" d="M399.6 86.5H111.4c-12.2 0-22.2 9.9-22.2 22.2V807c0 12.2 9.9 22.2 22.2 22.2h642.9c12.2 0 22.2-9.9 22.2-22.2v-376.9c0-6.3-2.6-12.2-7.3-16.4L414.5 92.2c-4.1-3.7-9.4-5.7-14.9-5.7z m-266 44.3H391l341.1 309.1V784.8H133.6v-654zM394.4 406.1c-0.2 5.9-0.2 10.4-0.2 13.4 0 17.5 2.5 32.6 7.4 45.3 3.6 9.6 9.5 19.2 17.6 28.9 5.9 7.1 16.6 17.4 32 31 15.4 13.6 25.4 24.4 30 32.5 4.6 8.1 6.9 16.9 6.9 26.5 0 17.3-6.8 32.5-20.3 45.6-13.5 13.1-30.1 19.7-49.7 19.7-19 0-34.8-5.9-47.5-17.8-12.7-11.9-21-30.4-25-55.7l-45.8 5.4c4.1 33.8 16.4 59.7 36.7 77.7 20.4 18 47.3 27 80.7 27 35.5 0 63.7-9.6 84.8-28.9 21.1-19.3 31.7-42.6 31.7-70 0-15.8-3.7-30.4-11.1-43.8-7.4-13.4-21.9-29.6-43.5-48.7-14.5-12.9-24-22.4-28.4-28.4-4.4-6.1-7.8-13.1-9.9-21-2.1-7.9-3.4-20.8-3.7-38.6h-42.7z m-2.7-89.3v50.7h50.7v-50.7h-50.7zM424.5-59.3l63.1 187.2 294.9 257c14 12.2 31.3 19.2 48.7 19.7 18.8 0.6 36.3-6.6 47.8-19.8l47.5-54.5c11.5-13.2 16.3-31.4 13.1-50-2.9-17.2-12.2-33.4-26.2-45.6l-294.9-257-194-37z m101.2 161.7l-35-103.9L598.5 19l285.8 249.2c12.6 11 14.7 26.2 8.8 33.1l-47.5 54.5c-6 6.8-21.4 6.8-34-4.2L525.7 102.4z m82.8-104.1h0.1-0.1zM864 200.3c-5.7 0.4-11.2 2.9-15.2 7.6L747 324.6c-8 9.2-7.1 23.2 2.1 31.3 9.2 8 23.2 7.1 31.3-2.1L882.2 237c8-9.2 7.1-23.2-2.1-31.3-4.6-4.1-10.4-5.8-16.1-5.4zM607-23.8c-10.7 0.7-19.6 9.2-20.5 20.3l-6.7 79.6-77.9 17.5c-11.9 2.7-19.4 14.5-16.8 26.5 2.7 12 14.5 19.5 26.5 16.8l109.6-24.6 9.4-112c1-12.2-8-22.9-20.2-23.9-1.2-0.3-2.3-0.3-3.4-0.2z"  horiz-adv-x="1024" />

    
    <glyph glyph-name="wodechengji" unicode="&#58917;" d="M727.3-59.3H155.4c-17.5 0-31.8 14.2-31.8 31.8v826c0 17.5 14.2 31.8 31.8 31.8h714.8c17.5 0 31.8-14.2 31.8-31.8v-174.7c0-9.6-4.4-18.8-11.9-24.8s-17.4-8.3-26.8-6.2c-21.8 4.8-73.6 9.1-94.6-7.8-4.5-3.6-9.7-9.7-9.7-24.8v-587.7c0-17.6-14.2-31.8-31.7-31.8z m-540.1 63.6h508.3v556c0 39.2 18.2 62.1 33.5 74.4 31.3 25.1 76.9 27.7 109.5 25.5V766.7H187.2v-762.4zM584.3 544.3H330.1c-17.5 0-31.8 14.2-31.8 31.8s14.2 31.8 31.8 31.8h254.2c17.5 0 31.8-14.2 31.8-31.8s-14.3-31.8-31.8-31.8zM584.3 353.7H330.1c-17.5 0-31.8 14.2-31.8 31.8 0 17.5 14.2 31.8 31.8 31.8h254.2c17.5 0 31.8-14.2 31.8-31.8 0-17.5-14.3-31.8-31.8-31.8zM584.3 163.1H330.1c-17.5 0-31.8 14.2-31.8 31.8 0 17.5 14.2 31.8 31.8 31.8h254.2c17.5 0 31.8-14.2 31.8-31.8s-14.3-31.8-31.8-31.8zM870.2 274.3c-17.5 0-31.8 14.2-31.8 31.8V512.6c0 17.5 14.2 31.8 31.8 31.8 17.5 0 31.8-14.2 31.8-31.8v-206.5c0-17.6-14.2-31.8-31.8-31.8zM870.2-43.4c-17.5 0-31.8 14.2-31.8 31.8V194.9c0 17.5 14.2 31.8 31.8 31.8 17.5 0 31.8-14.2 31.8-31.8v-206.5c0-17.6-14.2-31.8-31.8-31.8z"  horiz-adv-x="1024" />

    
    <glyph glyph-name="wodeshuji" unicode="&#58918;" d="M786-57H235c-88.9 0-161.3 72.3-161.3 161.3v551c0 14.8 12 26.9 26.9 26.9s26.9-12 26.9-26.9v-551c0-59.3 48.2-107.5 107.5-107.5h551c59.3 0 107.5 48.2 107.5 107.5V601.5c0 14.8 12 26.9 26.9 26.9 14.8 0 26.9-12 26.9-26.9v-497.2C947.3 15.4 875-57 786-57zM915.7 574.7H163.2c-52.8 0-94.1 56.1-94.1 127.7S110.4 830 163.2 830h752.6c14.8 0 26.9-12 26.9-26.9s-12-26.9-26.9-26.9H163.2c-19 0-40.3-31.6-40.3-73.9s21.3-73.9 40.3-73.9h752.6c14.8 0 26.9-12 26.9-26.9s-12.1-26.8-27-26.8zM862 682.2H230.3c-14.8 0-26.9 12-26.9 26.9 0 14.8 12 26.9 26.9 26.9H862c14.8 0 26.9-12 26.9-26.9 0-14.9-12.1-26.9-26.9-26.9zM638 92.4c-4.3 0-8.6 1-12.5 3.1l-110.7 58.2-110.7-58.2c-9-4.8-20-4-28.3 2s-12.4 16.2-10.7 26.3l21.1 123.3-89.6 87.3c-7.3 7.1-10 17.8-6.8 27.6 3.2 9.7 11.6 16.8 21.7 18.3l123.8 18 55.4 112.2c4.5 9.2 13.9 15 24.1 15s19.6-5.8 24.1-15l55.4-112.2 123.8-18c10.1-1.5 18.5-8.6 21.7-18.3 3.2-9.7 0.5-20.4-6.8-27.6l-89.6-87.3 21.1-123.3c1.7-10.1-2.4-20.3-10.7-26.3-4.7-3.3-10.2-5.1-15.8-5.1zM514.8 211c4.3 0 8.6-1 12.5-3.1l75-39.4L588 252c-1.5 8.7 1.4 17.6 7.7 23.8l60.7 59.2-83.9 12.2c-8.8 1.3-16.3 6.8-20.2 14.7l-37.5 76-37.5-76c-3.9-7.9-11.5-13.4-20.2-14.7L373.2 335l60.7-59.2c6.3-6.2 9.2-15.1 7.7-23.8l-14.3-83.5 75 39.4c3.9 2 8.2 3.1 12.5 3.1z"  horiz-adv-x="1024" />

    
    <glyph glyph-name="xiaoxizhongxin" unicode="&#58919;" d="M522.1 7c-7 0-13.7 3.1-18.3 8.4L386.4 151.8h-170c-79.8 0-144.8 65-144.8 144.8V634.5c0 79.8 65 144.8 144.8 144.8h591.3c79.9 0 144.8-65 144.8-144.8v-337.9c0-79.8-65-144.8-144.8-144.8H639.1L541.7 17c-4.3-6-11.2-9.7-18.5-10h-1.1zM216.4 731c-53.2 0-96.5-43.3-96.5-96.5v-337.9c0-53.2 43.3-96.5 96.5-96.5h181c7 0 13.7-3.1 18.3-8.4L520.5 70l86.7 120c4.5 6.3 11.8 10 19.6 10h181c53.2 0 96.5 43.3 96.5 96.5v338c0 53.2-43.3 96.5-96.5 96.5H216.4zM319 477.6m-48.3 0a48.3 48.3 0 1 1 96.6 0 48.3 48.3 0 1 1-96.6 0ZM512.1 477.6m-48.3 0a48.3 48.3 0 1 1 96.6 0 48.3 48.3 0 1 1-96.6 0ZM705.2 477.6m-48.3 0a48.3 48.3 0 1 1 96.6 0 48.3 48.3 0 1 1-96.6 0Z"  horiz-adv-x="1024" />

    
    <glyph glyph-name="wodedingdan" unicode="&#58920;" d="M745.5-56.2H268.2c-77 0-139.7 62.7-139.7 139.7V595.7c0 76.4 62.7 138.5 139.7 138.5h52.4c12.9 0 23.3-10.4 23.3-23.3s-10.4-23.3-23.3-23.3h-52.4c-51.4 0-93.1-41.2-93.1-92v-512.2c0-51.4 41.8-93.1 93.1-93.1h477.3c51.4 0 93.1 41.8 93.1 93.1V595.7c0 50.7-41.8 92-93.1 92h-40.7c-12.9 0-23.3 10.4-23.3 23.3s10.4 23.3 23.3 23.3h40.7c77 0 139.7-62.1 139.7-138.5v-512.2c0-77.2-62.7-139.8-139.7-139.8zM694.9 148H318.8c-12.9 0-23.3 10.4-23.3 23.3s10.4 23.3 23.3 23.3h376.1c12.9 0 23.3-10.4 23.3-23.3S707.8 148 694.9 148zM683.3 322.6H318.8c-12.9 0-23.3 10.4-23.3 23.3s10.4 23.3 23.3 23.3h364.5c12.9 0 23.3-10.4 23.3-23.3s-10.5-23.3-23.3-23.3zM694.9 497.3H318.8c-12.9 0-23.3 10.4-23.3 23.3s10.4 23.3 23.3 23.3h376.1c12.9 0 23.3-10.4 23.3-23.3s-10.4-23.3-23.3-23.3zM578.5 687.6H446.8c-12.9 0-23.3 10.4-23.3 23.3s10.4 23.3 23.3 23.3h131.7c12.9 0 23.3-10.4 23.3-23.3s-10.5-23.3-23.3-23.3zM380.5 642.2c-12.9 0-23.3 10.4-23.3 23.3V805.2c0 12.9 10.4 23.3 23.3 23.3s23.3-10.4 23.3-23.3v-139.7c0-12.8-10.4-23.3-23.3-23.3zM636.6 642.2c-12.9 0-23.3 10.4-23.3 23.3V805.2c0 12.9 10.4 23.3 23.3 23.3s23.3-10.4 23.3-23.3v-139.7c0-12.8-10.4-23.3-23.3-23.3z"  horiz-adv-x="1024" />

    
    <glyph glyph-name="xuefenrendingkaishixuexi" unicode="&#58921;" d="M885.8 115.3H142.1c-13.9 0-25.2 11.3-25.2 25.2V783.4c0 13.9 11.3 25.2 25.2 25.2h743.7c13.9 0 25.2-11.3 25.2-25.2v-642.9c0-13.9-11.3-25.2-25.2-25.2z m-718.5 50.5h693.3V758.2H167.3v-592.4zM934.1 770.8H89.5c-13.9 0-25.2 11.3-25.2 25.2s11.3 25.2 25.2 25.2h844.6c13.9 0 25.2-11.3 25.2-25.2s-11.3-25.2-25.2-25.2zM258.7-51.7c-6.5 0-12.9 2.5-17.8 7.4-9.8 9.8-9.8 25.8 0 35.7l167 167c9.8 9.8 25.8 9.8 35.7 0 9.8-9.8 9.8-25.8 0-35.7l-167-167c-5-4.9-11.5-7.4-17.9-7.4zM803.9-51.7c-6.5 0-12.9 2.5-17.8 7.4l-167 167c-9.8 9.8-9.8 25.8 0 35.7 9.8 9.8 25.8 9.8 35.7 0l167-167c9.8-9.8 9.8-25.8 0-35.7-5-4.9-11.5-7.4-17.9-7.4zM627.4 255.5c-4 0-8 1-11.7 2.9L511.8 313 408 258.4c-8.5-4.5-18.8-3.7-26.5 1.9-7.8 5.6-11.7 15.2-10 24.7l19.8 115.6-84 81.9c-6.9 6.7-9.3 16.7-6.4 25.8 3 9.1 10.9 15.8 20.3 17.2l116.1 16.9 51.9 105.2c4.2 8.6 13 14.1 22.6 14.1 9.6 0 18.4-5.4 22.6-14.1l51.9-105.2 116.1-16.9c9.5-1.4 17.4-8 20.3-17.2 3-9.1 0.5-19.1-6.4-25.8l-84-81.9L652.1 285c1.6-9.5-2.3-19-10-24.7-4.3-3.2-9.5-4.8-14.7-4.8zM511.8 366.7c4 0 8.1-1 11.7-2.9l70.4-37-13.4 78.4c-1.4 8.2 1.3 16.5 7.3 22.3l56.9 55.5-78.7 11.4c-8.2 1.2-15.3 6.3-19 13.8l-35.2 71.3-35.2-71.3c-3.7-7.4-10.8-12.6-19-13.8L379 482.9l56.9-55.5c5.9-5.8 8.7-14.1 7.3-22.3l-13.4-78.4 70.4 37c3.6 2 7.6 3 11.6 3z"  horiz-adv-x="1024" />

    
    <glyph glyph-name="xuankeguanli" unicode="&#58922;" d="M792.5-53.9H114.8c-15.3 0-27.7 12.4-27.7 27.7V679.2c0 15.3 12.4 27.7 27.7 27.7h677.7c15.3 0 27.7-12.4 27.7-27.7v-705.4c0-15.3-12.4-27.7-27.7-27.7z m-650.1 55.3h622.4V651.5H142.4v-650.1zM910.1 63.7H879c-15.3 0-27.7 12.4-27.7 27.7S863.7 119 879 119h3.5V769.1H260v-10.4c0-15.3-12.4-27.7-27.7-27.7s-27.7 12.4-27.7 27.7v38c0 15.3 12.4 27.7 27.7 27.7H910c15.3 0 27.7-12.4 27.7-27.7v-705.4c0.1-15.3-12.3-27.6-27.6-27.6zM432.9 153.6c-6.5 0-12.9 2.3-17.9 6.5L235.2 312.3c-11.7 9.9-13.1 27.3-3.2 39 9.9 11.6 27.3 13.1 39 3.2l158.2-133.9 217.3 268.5c9.6 11.9 27 13.7 38.9 4.1 11.9-9.6 13.7-27 4.1-38.9L454.4 163.8c-4.7-5.8-11.5-9.4-18.9-10.1-0.9-0.1-1.7-0.1-2.6-0.1z"  horiz-adv-x="1024" />

    
    <glyph glyph-name="xuexijindu" unicode="&#58923;" d="M509.2-54.3c-118.3 0-228.5 45.7-311.8 129-83.3 83.3-129 193.6-129 311.8 0 231.2 180.1 424.7 411.3 440.9 8.1 0 13.4-2.7 21.5-8.1 5.4-5.4 8.1-13.4 8.1-18.8v-414h414c8.1 0 13.4-2.7 18.8-8.1 5.4-5.4 8.1-13.4 8.1-18.8-16.3-233.8-209.8-413.9-441-413.9zM455.4 771c-188.2-26.9-333.3-190.9-333.3-384.4 0-102.2 40.3-201.6 112.9-274.2 72.6-72.6 169.4-112.9 274.2-112.9 193.6 0 357.5 145.2 384.4 333.3H482.3c-16.1 0-26.9 10.8-26.9 26.9V771zM899 496.8c-10.7 0-21.5 8.1-24.2 18.8-40.3 110.2-126.4 198.9-236.6 236.6-13.4 5.4-21.5 21.5-16.1 34.9 5.4 13.4 21.5 21.5 34.9 16.1 126.3-45.7 225.8-142.5 271.5-268.8 5.4-13.4-2.7-29.6-16.1-34.9-5.4-2.7-8.1-2.7-13.4-2.7z m0 0"  horiz-adv-x="1024" />

    
    <glyph glyph-name="zhanghaoshezhi" unicode="&#58924;" d="M514.9 297c-147.5 0-267.4 120-267.4 267.4 0 147.5 120 267.4 267.4 267.4 147.4 0 267.4-120 267.4-267.4 0-147.5-120-267.4-267.4-267.4z m0 484.3c-119.6 0-217-97.3-217-217s97.3-217 217-217c119.6 0 217 97.3 217 217s-97.4 217-217 217zM908.4-63.4c-13.9 0-25.2 11.3-25.2 25.2 0 117.1-139.8 332.1-368.3 332.1s-368.3-215-368.3-332.1c0-13.9-11.3-25.2-25.2-25.2s-25.2 11.3-25.2 25.2c0 152.3 167 382.6 418.8 382.6s418.8-230.3 418.8-382.6c-0.2-14-11.5-25.2-25.4-25.2zM515.2 426.9c-1.5 0-3 0-4.5 0.1-57 2.2-95.3 46.1-96.9 47.9-9.1 10.6-7.8 26.5 2.7 35.6 10.5 9.1 26.4 7.8 35.5-2.6 0.5-0.5 26.3-29.4 61-30.5 22-0.7 44.2 10 66 31.8 9.8 9.9 25.8 9.9 35.7 0 9.9-9.9 9.9-25.8 0-35.7-31-30.9-64.4-46.6-99.5-46.6z"  horiz-adv-x="1024" />

    
    <glyph glyph-name="zuotijilu" unicode="&#58925;" d="M254.3 687.3c-7.2 0-14.3 3.2-19 9.4-8 10.5-6 25.5 4.5 33.5 77.5 59.2 170.2 90.5 268 90.5 13.2 0 23.9-10.7 23.9-23.9s-10.7-23.9-23.9-23.9c-87.2 0-169.9-27.9-239-80.7-4.3-3.3-9.4-4.9-14.5-4.9zM507.8-63.3c-218.3 0-406.4 162.7-437.5 378.5-1.9 13.1 7.2 25.2 20.2 27 13.1 1.9 25.2-7.2 27-20.2C145.3 129.5 313-15.6 507.8-15.6c217.4 0 394.2 176.8 394.2 394.2S725.1 772.9 507.8 772.9c-13.2 0-23.9 10.7-23.9 23.9s10.7 23.9 23.9 23.9c243.7 0 442-198.3 442-442s-198.3-442-442-442zM252.3 691.6c-1.9 0-3.9 0.2-5.8 0.7-12.8 3.2-20.6 16.2-17.4 29l23.2 92.9c3.2 12.8 16.2 20.6 29 17.4s20.6-16.2 17.4-29l-23.2-92.9c-2.8-10.9-12.5-18.1-23.2-18.1zM345.2 656.7c-1.9 0-3.9 0.2-5.8 0.7l-92.9 23.2c-12.8 3.2-20.6 16.2-17.4 29 3.2 12.8 16.2 20.6 29 17.4l92.9-23.2c12.8-3.2 20.6-16.2 17.4-29-2.8-10.8-12.5-18.1-23.2-18.1zM296.6 166.8l43.5 166 240.4 240.3c11.4 11.4 26 18.5 41.1 20 16.3 1.7 31.8-3.6 42.6-14.4l44.4-44.4c10.8-10.8 16-26.3 14.4-42.6-1.5-15.1-8.6-29.7-20-41.1L462.6 210.3l-166-43.5z m78.1 146.1l-24.2-92.2 92.2 24.2 233 233c10.3 10.3 11.2 23.6 5.6 29.2l-44.4 44.4c-5.6 5.6-18.9 4.6-29.2-5.6l-233-233z m78-85.3zM662.2 417.9c-4.9 0-9.9 1.9-13.6 5.6l-95.2 95.2c-7.5 7.5-7.5 19.7 0 27.2s19.7 7.5 27.2 0l95.2-95.2c7.5-7.5 7.5-19.7 0-27.2-3.8-3.8-8.7-5.6-13.6-5.6zM376.5 207.6l-0.6 38.5-38.4 0.6-13.9-52.9zM323.6 174.5c-5 0-10 2-13.6 5.6-4.8 4.8-6.7 11.9-5 18.5l13.9 52.9c2.3 8.6 10.4 14.3 18.9 14.4l38.5-0.5c10.4-0.2 18.8-8.6 19-19l0.5-38.5c0.1-8.9-5.8-16.7-14.4-18.9l-52.9-13.9c-1.7-0.4-3.3-0.6-4.9-0.6z m28.7 52.7l-1.7-6.5 6.4 1.7-0.1 4.7-4.6 0.1z"  horiz-adv-x="1024" />

    
    <glyph glyph-name="fanhuishouye1" unicode="&#58928;" d="M949 432.1l-15.1-20.7c-8.6-11.9-22.6-16.9-36.4-15.5L512 671.1v0.1h-0.1l-0.1-0.1-385.4-275.2c-13.7-1.4-27.8 3.6-36.5 15.5l-15 20.7c-12.9 17.6-8.8 42.4 9 55.1L478.5 769c17.8 12.7 32.5 23.4 32.7 23.7 0.2 0.3 0.5 0.5 0.6 0.4 0.1-0.1 0.2-0.1 0.3 0 0.1 0 0.3-0.2 0.6-0.4 0.1-0.3 14.9-11 32.7-23.7l105.4-75.3c17.8-12.7 32.4-5.3 32.4 16.4v41.7c0 21.7 18 39.5 39.9 39.5h37.5c21.9 0 39.9-17.8 39.9-39.5v-125.5c0-21.7 14.6-49.9 32.4-62.6l107-76.3c17.9-12.9 22-37.7 9.1-55.3z m-146.6-50.8v-287.2c0-43.4-35.9-79.1-79.8-79.1H589.4V284.8H434.5V15H301.3c-43.9 0-79.9 35.7-79.9 79.1V381.3l290.5 207.3 290.5-207.3z"  horiz-adv-x="1024" />

    
    <glyph glyph-name="xuanzedangqianzhuanye1" unicode="&#58929;" d="M69.7-2.7V52h883.7v-54.7H69.7z m662.8 765.9h220.9v-656.5H732.5V763.2zM401.1 380.3H622v-273.5H401.1V380.3zM69.7 599.1h220.9v-492.4H69.7V599.1z"  horiz-adv-x="1024" />

    


  </font>
</defs>
</svg>
